<svg width="650" height="200" xmlns="http://www.w3.org/2000/svg">
          <defs><linearGradient id="pathGradient" x1="0%" y1="0%" x2="100%" y2="0%">
           <stop offset="0%" style="stop-color:#ff6b6b;stop-opacity:1" />
           <stop offset="100%" style="stop-color:#4ecdc4;stop-opacity:1" />
         </linearGradient></defs>
          <path d="M 493 100 C 481.75 95, 353 40, 358 40 C 363 40, 568 100, 553 100 C 538 100, 205.5 35, 178 40 C 150.5 45, 206.75 155, 223 160 C 239.25 165, 373 100, 373 100 C 373 100, 223 160, 223 160 C 223 160, 351.75 110, 373 100 C 394.25 90, 474.25 45, 478 40 C 481.75 35, 423 40, 418 40" stroke="url(#pathGradient)" stroke-width="3" fill="none" stroke-linecap="round" stroke-linejoin="round"/>
        </svg>